<svg width="36" height="36" viewBox="0 0 36 36" fill="none" xmlns="http://www.w3.org/2000/svg">
<path fill-rule="evenodd" clip-rule="evenodd" d="M18.0116 4C10.2635 4 4 10.4166 4 18.3549C4 24.7004 8.01327 30.0717 13.5807 31.9728C14.2768 32.1157 14.5318 31.6639 14.5318 31.2838C14.5318 30.9511 14.5088 29.8104 14.5088 28.6218C10.6111 29.4776 9.79949 26.9106 9.79949 26.9106C9.17311 25.247 8.245 24.8194 8.245 24.8194C6.96929 23.94 8.33793 23.94 8.33793 23.94C9.75303 24.0351 10.4956 25.4135 10.4956 25.4135C11.748 27.5998 13.7663 26.9821 14.5782 26.6017C14.6941 25.6748 15.0655 25.0332 15.4599 24.6767C12.3512 24.344 9.08047 23.1082 9.08047 17.5942C9.08047 16.0257 9.63687 14.7423 10.5185 13.7443C10.3794 13.3878 9.89213 11.9141 10.6579 9.94152C10.6579 9.94152 11.841 9.56119 14.5085 11.415C15.6506 11.1008 16.8284 10.9409 18.0116 10.9396C19.1947 10.9396 20.4007 11.1061 21.5143 11.415C24.1822 9.56119 25.3653 9.94152 25.3653 9.94152C26.131 11.9141 25.6435 13.3878 25.5044 13.7443C26.4092 14.7423 26.9427 16.0257 26.9427 17.5942C26.9427 23.1082 23.672 24.32 20.5401 24.6767C21.0506 25.1282 21.4911 25.9837 21.4911 27.3385C21.4911 29.2635 21.4682 30.8084 21.4682 31.2836C21.4682 31.6639 21.7234 32.1157 22.4192 31.9731C27.9867 30.0714 31.9999 24.7004 31.9999 18.3549C32.0229 10.4166 25.7364 4 18.0116 4Z" fill="white"/>
</svg>
