<svg width="36" height="36" viewBox="0 0 36 36" fill="none" xmlns="http://www.w3.org/2000/svg">
<path d="M12.616 5.09092C11.2328 5.15618 10.2882 5.37692 9.46245 5.7014C8.60782 6.03446 7.88345 6.4814 7.16272 7.20473C6.442 7.92805 5.99817 8.65293 5.66745 9.50885C5.34738 10.3364 5.13054 11.2818 5.06944 12.6658C5.00834 14.0498 4.99482 14.4946 5.00158 18.0249C5.00834 21.5552 5.02394 21.9977 5.09102 23.3846C5.15706 24.7675 5.37702 25.7119 5.70151 26.5379C6.03509 27.3925 6.48152 28.1166 7.2051 28.8376C7.92869 29.5586 8.65306 30.0013 9.51107 30.3326C10.3379 30.6521 11.2835 30.87 12.6672 30.9306C14.051 30.9912 14.4964 31.0052 18.0256 30.9984C21.5549 30.9917 21.9993 30.9761 23.3858 30.9103C24.7724 30.8445 25.7118 30.623 26.5381 30.3001C27.3927 29.9657 28.1174 29.5201 28.8378 28.7962C29.5583 28.0724 30.0019 27.347 30.3323 26.4906C30.6527 25.6638 30.8703 24.7181 30.9303 23.3354C30.9909 21.9478 31.0052 21.5048 30.9985 17.975C30.9917 14.4452 30.9758 14.0027 30.9101 12.6164C30.8443 11.2301 30.6241 10.2886 30.2998 9.46205C29.9657 8.60743 29.5198 7.88385 28.7965 7.16235C28.0732 6.44084 27.3472 5.99754 26.4911 5.66786C25.6637 5.3478 24.7186 5.12966 23.3349 5.06986C21.9512 5.01006 21.5058 4.99472 17.9752 5.00148C14.4446 5.00824 14.0026 5.02332 12.616 5.09092ZM12.7679 28.5919C11.5003 28.5368 10.8121 28.3262 10.3535 28.1499C9.74611 27.9159 9.31346 27.633 8.85638 27.1803C8.3993 26.7277 8.11849 26.2935 7.88137 25.6874C7.70327 25.2288 7.48877 24.5413 7.42949 23.2738C7.36501 21.9039 7.35148 21.4926 7.34394 18.0218C7.3364 14.5511 7.34966 14.1403 7.40973 12.7698C7.46381 11.5033 7.67571 10.8143 7.85173 10.3559C8.08573 9.7478 8.36758 9.31593 8.82128 8.85911C9.27498 8.40229 9.70789 8.12097 10.3145 7.88385C10.7726 7.70497 11.46 7.49229 12.727 7.43197C14.098 7.36697 14.5088 7.35397 17.9791 7.34643C21.4493 7.33889 21.8612 7.35189 23.2327 7.41221C24.4992 7.46733 25.1884 7.67715 25.6463 7.85421C26.2539 8.08821 26.6863 8.36927 27.1431 8.82375C27.6 9.27823 27.8816 9.70958 28.1187 10.3175C28.2978 10.7743 28.5105 11.4615 28.5703 12.7292C28.6356 14.1002 28.6504 14.5113 28.6566 17.9812C28.6629 21.4512 28.6506 21.8633 28.5906 23.2333C28.5352 24.5008 28.3251 25.1892 28.1486 25.6484C27.9146 26.2555 27.6325 26.6884 27.1785 27.145C26.7245 27.6015 26.2922 27.8829 25.6853 28.12C25.2277 28.2986 24.5395 28.5118 23.2735 28.5721C21.9025 28.6366 21.4917 28.6501 18.0202 28.6577C14.5486 28.6652 14.1391 28.6512 12.7681 28.5919M23.3658 11.052C23.3663 11.3605 23.4584 11.662 23.6302 11.9183C23.8021 12.1745 24.0461 12.3741 24.3314 12.4917C24.6167 12.6092 24.9304 12.6396 25.2329 12.5788C25.5355 12.5181 25.8132 12.369 26.031 12.1504C26.2487 11.9318 26.3968 11.6536 26.4564 11.3508C26.5161 11.0481 26.4846 10.7345 26.366 10.4496C26.2473 10.1648 26.0469 9.92149 25.79 9.80057C25.5331 9.57964 25.2313 9.48874 24.9227 9.48935C24.5091 9.49018 24.1127 9.65526 23.8207 9.94829C23.5288 10.2413 23.3651 10.6383 23.3658 11.052ZM11.3251 18.013C11.3324 21.6998 14.3266 24.6817 18.0126 24.6747C21.6987 24.6677 24.6827 21.6738 24.6757 17.987C24.6687 14.3002 21.6737 11.3174 17.9872 11.3247C14.3006 11.332 11.3181 14.3267 11.3251 18.013ZM13.6667 18.0083C13.665 17.1512 13.9175 16.3129 14.3922 15.5993C14.867 14.8857 15.5427 14.329 16.3339 13.9994C17.1251 13.6699 17.9962 13.5823 18.8371 13.7479C19.6781 13.9134 20.451 14.3246 21.0583 14.9295C21.6655 15.5343 22.0798 16.3056 22.2487 17.1459C22.4175 17.9862 22.3334 18.8576 22.007 19.6501C21.6806 20.4426 21.1265 21.1205 20.4148 21.5981C19.7031 22.0756 18.8658 22.3314 18.0087 22.3331C17.4396 22.3343 16.8759 22.2234 16.3497 22.0067C15.8234 21.79 15.3451 21.4717 14.9418 21.0701C14.5386 20.6685 14.2185 20.1914 13.9997 19.666C13.8009 19.1407 13.6677 18.5774 13.6667 18.0083Z" fill="white"/>
</svg>
